<?xml version="1.0" encoding="UTF-8"?>
<svg version="1.1" xmlns="http://www.w3.org/2000/svg" width="240" height="240">
<path d="M0 0 C79.2 0 158.4 0 240 0 C240 79.2 240 158.4 240 240 C160.8 240 81.6 240 0 240 C0 160.8 0 81.6 0 0 Z " fill="#2183C4" transform="translate(0,0)"/>
<path d="M0 0 C3.73118846 3.466252 7.0619676 7.24213047 9 12 C8.625 14.75 8.625 14.75 8 17 C4.7 17.33 1.4 17.66 -2 18 C-2.433125 17.05125 -2.86625 16.1025 -3.3125 15.125 C-4.79302201 11.79958063 -4.79302201 11.79958063 -8 10 C-12.50242236 9.41239573 -16.68686505 9.49709725 -20.9375 11.125 C-24.7456552 14.58695927 -26.15743164 18.40353863 -26.3984375 23.4609375 C-26.40633792 25.09895791 -26.39817748 26.73712452 -26.375 28.375 C-26.38660156 29.18710938 -26.39820313 29.99921875 -26.41015625 30.8359375 C-26.37813631 37.49608473 -25.31583407 43.27548934 -20.875 48.5 C-16.84566425 50.60226213 -13.4571111 50.67365827 -9 50 C-5.19160717 48.47797806 -5.19160717 48.47797806 -2 46 C-1.76924918 44.65252916 -1.58846937 43.29622435 -1.4375 41.9375 C-1.293125 40.638125 -1.14875 39.33875 -1 38 C-4.96 38 -8.92 38 -13 38 C-13 34.37 -13 30.74 -13 27 C-5.41 27 2.18 27 10 27 C10.21626093 31.21108083 10.37461179 35.41106036 10.5 39.625 C10.60054687 41.40970703 10.60054687 41.40970703 10.703125 43.23046875 C10.89639452 51.8792798 10.89639452 51.8792798 8.31323242 55.10888672 C6.26680957 56.66727825 4.30694245 57.86954168 2 59 C1.34596191 59.34305176 0.69192383 59.68610352 0.01806641 60.03955078 C-6.59161505 63.2772161 -14.91234125 63.21115815 -21.84765625 61.15625 C-29.43485159 57.76890487 -33.75120152 52.49909098 -36.8125 44.875 C-40.35816204 34.09201603 -39.96283984 22.62694129 -36 12 C-32.54601164 5.84599124 -27.65109883 0.74256989 -21.25 -2.3125 C-14.0637017 -3.83267849 -6.40726216 -4.0194626 0 0 Z " fill="#F6F9FA" transform="translate(158,90)"/>
<path d="M0 0 C3.96 0 7.92 0 12 0 C12.54173228 1.62519684 13.08346226 3.25039444 13.62518311 4.87559509 C14.11216649 6.33651423 14.59918752 7.79742083 15.08624268 9.25831604 C16.4401994 13.31962717 17.79347734 17.38116241 19.14550781 21.44311523 C21.6092971 28.84308915 24.07677067 36.24153324 26.578125 43.62890625 C26.95001953 44.73105469 27.32191406 45.83320313 27.70507812 46.96875 C28.38760046 48.98952641 29.07364583 51.00911728 29.76367188 53.02734375 C30.21323242 54.36152344 30.21323242 54.36152344 30.671875 55.72265625 C30.9306543 56.48328369 31.18943359 57.24391113 31.45605469 58.02758789 C32 60 32 60 32 63 C28.04 63 24.08 63 20 63 C17 52.375 17 52.375 17 49 C6.605 49.495 6.605 49.495 -4 50 C-5.32 54.29 -6.64 58.58 -8 63 C-11.63 63 -15.26 63 -19 63 C-18.36017068 56.05012977 -16.12487644 49.67493006 -13.96484375 43.06640625 C-13.56672989 41.83333237 -13.16861603 40.60025848 -12.75843811 39.32981873 C-11.70638608 36.07152725 -10.64754488 32.81548238 -9.58721924 29.55987549 C-8.50386429 26.22941135 -7.42702111 22.89684361 -6.34960938 19.56445312 C-4.23939948 13.04090631 -2.12140167 6.51991583 0 0 Z " fill="#F7F9FB" transform="translate(188,88)"/>
<path d="M0 0 C3.68937013 2.06243185 6.04202794 4.692308 8.06640625 8.35546875 C8.92343093 11.62774479 8.88595493 14.61322748 8.75390625 17.98046875 C5.12390625 17.98046875 1.49390625 17.98046875 -2.24609375 17.98046875 C-2.67921875 16.84609375 -3.11234375 15.71171875 -3.55859375 14.54296875 C-4.11546875 13.36734375 -4.67234375 12.19171875 -5.24609375 10.98046875 C-8.77603988 9.80382004 -11.54064788 9.78196272 -15.24609375 9.98046875 C-16.23609375 10.64046875 -17.22609375 11.30046875 -18.24609375 11.98046875 C-18.49630945 15.06412746 -18.49630945 15.06412746 -18.24609375 17.98046875 C-13.58628126 20.48959855 -9.11706253 22.40477761 -4.05859375 23.98046875 C1.53700782 25.79163954 5.07521921 27.5823444 8.50390625 32.48046875 C11.32438026 38.12141678 11.81643883 44.36554813 10.03515625 50.42578125 C8.10369279 55.14540567 6.18288066 58.21235974 1.75390625 60.98046875 C1.19445312 61.33625 0.635 61.69203125 0.05859375 62.05859375 C-3.20915894 63.36569483 -6.11279827 63.28246487 -9.62109375 63.29296875 C-10.90757813 63.30972656 -12.1940625 63.32648438 -13.51953125 63.34375 C-19.05302506 62.80432136 -22.95791231 60.90183192 -26.49609375 56.60546875 C-30.63355493 51.42822675 -31.5076963 47.65133381 -31.24609375 40.98046875 C-26.29609375 40.48546875 -26.29609375 40.48546875 -21.24609375 39.98046875 C-20.30208333 42.25911458 -19.35807292 44.53776042 -18.4140625 46.81640625 C-17.30170293 49.28194333 -17.30170293 49.28194333 -14.24609375 50.98046875 C-7.90385265 51.47803124 -7.90385265 51.47803124 -2.24609375 48.98046875 C-1.10256459 46.69341044 -1.14274936 45.38782113 -1.18359375 42.85546875 C-1.20421875 41.57671875 -1.22484375 40.29796875 -1.24609375 38.98046875 C-1.85195312 38.8103125 -2.4578125 38.64015625 -3.08203125 38.46484375 C-22.6608088 32.80205886 -22.6608088 32.80205886 -28.05859375 25.54296875 C-30.26507695 18.92351916 -30.53858044 11.81399726 -27.62109375 5.41796875 C-19.87214092 -2.53490389 -10.20679795 -4.39201609 0 0 Z " fill="#F6F9FB" transform="translate(89.24609375,89.01953125)"/>
<path d="M0 0 C1.65571067 1.41425286 3.31044744 2.82965795 4.9609375 4.25 C6.23115897 5.34015176 7.5063675 6.42455266 8.7890625 7.5 C10.07764594 8.59666676 11.34706168 9.71606571 12.6015625 10.8515625 C13.92082212 12.03330972 15.250951 13.204473 16.62402344 14.32324219 C27.83779579 23.48804788 27.83779579 23.48804788 29.11328125 30.15234375 C29.45918518 34.38529457 29.35552214 37.92060529 28 42 C26.24550108 43.93233475 24.36848697 45.49415633 22.32397461 47.11621094 C19.82235866 49.14399418 17.60509967 51.32167168 15.3515625 53.62109375 C14.57425781 54.41064453 13.79695313 55.20019531 12.99609375 56.01367188 C11.39023415 57.65524664 9.78611802 59.29852846 8.18359375 60.94335938 C7.41402344 61.72388672 6.64445312 62.50441406 5.8515625 63.30859375 C4.81249756 64.37291626 4.81249756 64.37291626 3.75244141 65.45874023 C2 67 2 67 0 67 C-1.52306364 52.26012857 -1.52306364 52.26012857 1.9453125 47.11328125 C4.52187313 44.85583593 7.16662436 42.92236109 10 41 C11.55989065 39.66686661 13.10359861 38.31439552 14.625 36.9375 C15.74934767 35.95758435 16.87407755 34.97810582 18 34 C14.33157445 29.10876593 10.14253154 25.55967096 5.3046875 21.83203125 C0.12852167 17.71741807 0.12852167 17.71741807 -0.34057617 15.09887695 C-0.32486572 14.40238037 -0.30915527 13.70588379 -0.29296875 12.98828125 C-0.28330078 12.23095703 -0.27363281 11.47363281 -0.26367188 10.69335938 C-0.23853516 9.90767578 -0.21339844 9.12199219 -0.1875 8.3125 C-0.17396484 7.51521484 -0.16042969 6.71792969 -0.14648438 5.89648438 C-0.11117089 3.93070033 -0.05736447 1.96526418 0 0 Z " fill="#A9ABAC" transform="translate(19,86)"/>
<path d="M0 0 C3.63 0 7.26 0 11 0 C11 20.79 11 41.58 11 63 C7.37 63 3.74 63 0 63 C0 42.21 0 21.42 0 0 Z " fill="#F5F8FA" transform="translate(104,88)"/>
<path d="M0 0 C0.66 0 1.32 0 2 0 C3.98 6.93 5.96 13.86 8 21 C3.38 21 -1.24 21 -6 21 C-4.02 14.07 -2.04 7.14 0 0 Z " fill="#1A81C3" transform="translate(193,105)"/>
<path d="M0 0 C7.92 0 15.84 0 24 0 C24 7.59 24 15.18 24 23 C24.66 23 25.32 23 26 23 C26.66 21.68 27.32 20.36 28 19 C26.83348574 24.92863717 25.24480642 30.38798394 23 36 C22.34 34.68 21.68 33.36 21 32 C20.34 33.32 19.68 34.64 19 36 C17.515 35.505 17.515 35.505 16 35 C16.1875 33.25 16.1875 33.25 17 31 C17.82717529 30.41895508 18.65435059 29.83791016 19.5065918 29.23925781 C22.23533494 27.21931744 22.23533494 27.21931744 22.65942383 24.15917969 C22.67513428 23.09086914 22.69084473 22.02255859 22.70703125 20.921875 C22.75053711 19.18164062 22.75053711 19.18164062 22.79492188 17.40625 C22.80072266 16.1996875 22.80652344 14.993125 22.8125 13.75 C22.83763672 12.52796875 22.86277344 11.3059375 22.88867188 10.046875 C22.94756403 7.03159674 22.97663846 4.01576284 23 1 C15.41 1 7.82 1 0 1 C0 0.67 0 0.34 0 0 Z " fill="#0E7CC1" transform="translate(145,116)"/>
<path d="M0 0 C0.66 0 1.32 0 2 0 C3.98 6.93 5.96 13.86 8 21 C5.69 20.67 3.38 20.34 1 20 C1 15.38 1 10.76 1 6 C0.34 5.67 -0.32 5.34 -1 5 C-0.67 3.35 -0.34 1.7 0 0 Z " fill="#2485C6" transform="translate(193,105)"/>
<path d="M0 0 C1.875 0.3125 1.875 0.3125 4 1 C6 4 6 4 6 8 C9.63 8 13.26 8 17 8 C17 8.33 17 8.66 17 9 C12.545 9.495 12.545 9.495 8 10 C8.66 11.98 9.32 13.96 10 16 C8.02 15.34 6.04 14.68 4 14 C4.02320312 13.39671875 4.04640625 12.7934375 4.0703125 12.171875 C4.08835937 11.37265625 4.10640625 10.5734375 4.125 9.75 C4.14820312 8.96109375 4.17140625 8.1721875 4.1953125 7.359375 C3.97962391 4.75385683 3.3921178 3.20013023 2 1 C1.34 0.67 0.68 0.34 0 0 Z " fill="#1580C4" transform="translate(81,99)"/>
<path d="M0 0 C0 0.66 0 1.32 0 2 C0.99 2.33 1.98 2.66 3 3 C3 3.99 3 4.98 3 6 C1.53775201 5.57576756 0.08026588 5.13509755 -1.375 4.6875 C-2.18710938 4.44386719 -2.99921875 4.20023437 -3.8359375 3.94921875 C-6 3 -6 3 -8 0 C-4.71023192 -1.09658936 -3.28696233 -0.79953138 0 0 Z " fill="#2887C7" transform="translate(78,106)"/>
<path d="M0 0 C0.66 0 1.32 0 2 0 C2.50559908 1.43554025 3.0042749 2.8735202 3.5 4.3125 C3.7784375 5.11300781 4.056875 5.91351563 4.34375 6.73828125 C5 9 5 9 5 12 C4.01 12 3.02 12 2 12 C1.87625 11.030625 1.7525 10.06125 1.625 9.0625 C1.41875 8.051875 1.2125 7.04125 1 6 C0.34 5.67 -0.32 5.34 -1 5 C-0.67 3.35 -0.34 1.7 0 0 Z " fill="#2F8BC8" transform="translate(193,105)"/>
<path d="M0 0 C1.41778293 2.83556587 0.86257622 4.9908706 0.5625 8.125 C0.46066406 9.22070312 0.35882812 10.31640625 0.25390625 11.4453125 C0.17011719 12.28835937 0.08632813 13.13140625 0 14 C1.98 14.495 1.98 14.495 4 15 C2.625 16.5 2.625 16.5 1 18 C0.34 18 -0.32 18 -1 18 C-1.02684312 15.18743719 -1.04676188 12.37512759 -1.0625 9.5625 C-1.07087891 8.76005859 -1.07925781 7.95761719 -1.08789062 7.13085938 C-1.0965143 5.08704779 -1.0522815 3.04316098 -1 1 C-0.67 0.67 -0.34 0.34 0 0 Z " fill="#96A3B0" transform="translate(20,135)"/>
<path d="M0 0 C2.12508244 3.18762365 2.5020163 5.26512223 3 9 C1.68 9.99 0.36 10.98 -1 12 C-1.33 9.69 -1.66 7.38 -2 5 C-1.67 5.66 -1.34 6.32 -1 7 C-0.34 7 0.32 7 1 7 C0.67 4.69 0.34 2.38 0 0 Z " fill="#3089C6" transform="translate(204,137)"/>
<path d="M0 0 C0.66 0.33 1.32 0.66 2 1 C2 2.98 2 4.96 2 7 C1.01 7.495 1.01 7.495 0 8 C-1.125 5.6875 -1.125 5.6875 -2 3 C-1.34 2.01 -0.68 1.02 0 0 Z " fill="#1A80C2" transform="translate(87,129)"/>
<path d="M0 0 C0.33 0.66 0.66 1.32 1 2 C3.52733235 2.65555119 3.52733235 2.65555119 6 3 C3 5 3 5 -1 5 C-1.33 4.01 -1.66 3.02 -2 2 C-1.34 1.34 -0.68 0.68 0 0 Z " fill="#2A86C8" transform="translate(72,99)"/>
<path d="M0 0 C1.2065625 0.0309375 1.2065625 0.0309375 2.4375 0.0625 C0.7875 1.7125 -0.8625 3.3625 -2.5625 5.0625 C-2.5625 4.4025 -2.5625 3.7425 -2.5625 3.0625 C-3.2225 3.0625 -3.8825 3.0625 -4.5625 3.0625 C-3.06867284 0.07484568 -3.06867284 0.07484568 0 0 Z " fill="#9EA7AF" transform="translate(26.5625,143.9375)"/>
</svg>
